<svg width="16" height="16" viewBox="0 0 16 16" fill="none" xmlns="http://www.w3.org/2000/svg">
<rect width="16" height="16" rx="8" fill="#E6F0FF"/>
<path d="M8.00005 6.15391L4.30774 9.84622V11.6924H11.6924M4.30774 11.6924L6.15389 11.6924L9.8462 8.00006M8.00005 6.15391L9.32403 4.82992L9.32483 4.82913C9.50708 4.64688 9.59837 4.55559 9.7036 4.5214C9.7963 4.49128 9.89616 4.49128 9.98885 4.5214C10.094 4.55557 10.1852 4.64675 10.3672 4.82875L11.1702 5.63173C11.3529 5.81451 11.4444 5.90594 11.4786 6.01132C11.5087 6.10402 11.5087 6.20387 11.4786 6.29656C11.4444 6.40187 11.3531 6.49316 11.1706 6.67568L11.1702 6.67607L9.8462 8.00006M8.00005 6.15391L9.8462 8.00006" stroke="#0047B3" stroke-width="0.923077" stroke-linecap="round" stroke-linejoin="round"/>
</svg>
