<svg width="38" height="38" viewBox="0 0 38 38" fill="none" xmlns="http://www.w3.org/2000/svg">
<circle cx="19" cy="19" r="19" fill="#2E2E2E"/>
<path d="M11.4375 12.4688C11.4375 11.8995 11.8995 11.4375 12.4688 11.4375H16.5938C17.163 11.4375 17.625 11.8995 17.625 12.4688V16.5938C17.625 17.163 17.163 17.625 16.5938 17.625H12.4688C12.1952 17.625 11.9329 17.5164 11.7395 17.323C11.5461 17.1296 11.4375 16.8673 11.4375 16.5938V12.4688ZM11.4375 21.4063C11.4375 20.837 11.8995 20.375 12.4688 20.375H16.5938C17.163 20.375 17.625 20.837 17.625 21.4063V25.5313C17.625 26.1005 17.163 26.5625 16.5938 26.5625H12.4688C12.1952 26.5625 11.9329 26.4539 11.7395 26.2605C11.5461 26.0671 11.4375 25.8048 11.4375 25.5313V21.4063ZM20.375 12.4688C20.375 11.8995 20.837 11.4375 21.4063 11.4375H25.5313C26.1005 11.4375 26.5625 11.8995 26.5625 12.4688V16.5938C26.5625 17.163 26.1005 17.625 25.5313 17.625H21.4063C21.1327 17.625 20.8704 17.5164 20.677 17.323C20.4836 17.1296 20.375 16.8673 20.375 16.5938V12.4688Z" stroke="white" stroke-width="1.375" stroke-linecap="round" stroke-linejoin="round"/>
<path d="M14.1875 14.1875H14.875V14.875H14.1875V14.1875ZM14.1875 23.125H14.875V23.8125H14.1875V23.125ZM23.125 14.1875H23.8125V14.875H23.125V14.1875ZM20.375 20.375H21.0625V21.0625H20.375V20.375ZM20.375 25.875H21.0625V26.5625H20.375V25.875ZM25.875 20.375H26.5625V21.0625H25.875V20.375ZM25.875 25.875H26.5625V26.5625H25.875V25.875ZM23.125 23.125H23.8125V23.8125H23.125V23.125Z" stroke="white" stroke-width="1.375" stroke-linecap="round" stroke-linejoin="round"/>
</svg>
